<svg xmlns="http://www.w3.org/2000/svg" xmlns:xlink="http://www.w3.org/1999/xlink" xmlns:svgjs="http://svgjs.com/svgjs" version="1.1" height="57" width="285.26267128139864">
  <g xmlns:name="mainText_mainfill" id="SvgjsG3409" rel="mainfill" name="main_text" fill="#1967d2" transform="translate(67.17468052059542,-0.9299993515014648)">
    <path d="M9.54 18.035999999999994q5.292 0 7.884 2.016t2.592 5.724q0 2.124-0.756 3.618t-2.16 2.412 -3.438 1.332 -4.59 0.414l-3.384 0 0 9.648 -2.448 0 0-24.48q1.296-0.36 3.042-0.522t3.258-0.162zM9.648 20.159999999999997q-1.368 0-2.322 0.09t-1.638 0.162l0 11.016 3.096 0q1.98 0 3.582-0.234t2.736-0.864 1.746-1.746 0.612-2.844q0-1.656-0.666-2.736t-1.764-1.71 -2.502-0.882 -2.88-0.252zM29.124 43.523999999999994q-1.188-0.036-2.07-0.306t-1.476-0.828 -0.9-1.44 -0.306-2.214l0-23.04 2.34-0.432 0 23.4q0 0.864 0.162 1.386t0.486 0.828 0.846 0.45 1.242 0.252zM39.455999999999996 41.507999999999996q1.368 0 2.394-0.09t1.746-0.234l0-6.552q-0.396-0.18-1.26-0.378t-2.376-0.198q-0.864 0-1.8 0.126t-1.728 0.54 -1.296 1.134 -0.504 1.908q0 1.044 0.342 1.764t0.972 1.152 1.512 0.63 1.998 0.198zM39.239999999999995 24.155999999999995q1.836 0 3.114 0.522t2.07 1.44 1.152 2.178 0.36 2.736l0 11.736q-0.36 0.108-1.044 0.234t-1.584 0.27 -1.998 0.234 -2.25 0.09q-1.476 0-2.718-0.324t-2.16-1.026 -1.44-1.8 -0.522-2.682q0-1.512 0.576-2.592t1.62-1.782 2.484-1.026 3.132-0.324q0.504 0 1.062 0.054t1.08 0.144 0.9 0.18 0.522 0.162l0-1.152q0-0.972-0.144-1.89t-0.63-1.656 -1.368-1.188 -2.322-0.45q-2.052 0-3.06 0.288t-1.476 0.468l-0.324-2.052q0.612-0.288 1.89-0.54t3.078-0.252zM59.616 43.596q-2.16 0-3.816-0.684t-2.754-1.962 -1.674-3.06 -0.576-3.942q0-2.196 0.594-3.996t1.71-3.096 2.7-1.998 3.564-0.702q1.512 0 2.826 0.252t2.034 0.648l-0.612 2.016q-0.72-0.36-1.62-0.576t-2.412-0.216q-3.096 0-4.698 1.998t-1.602 5.67q0 1.656 0.36 3.042t1.17 2.376 2.088 1.548 3.114 0.558q1.512 0 2.538-0.342t1.494-0.594l0.504 2.016q-0.648 0.36-2.034 0.702t-2.898 0.342zM67.356 33.876q0-2.448 0.702-4.266t1.836-3.042 2.592-1.818 3.006-0.594q3.42 0 5.454 2.232t2.034 6.876q0 0.288-0.018 0.576t-0.054 0.54l-13.068 0q0.108 3.42 1.692 5.256t5.04 1.836q1.908 0 3.024-0.36t1.62-0.612l0.432 2.016q-0.504 0.288-1.89 0.684t-3.258 0.396q-2.448 0-4.176-0.72t-2.844-2.016 -1.62-3.078 -0.504-3.906zM80.56799999999998 32.39999999999999q-0.072-2.916-1.368-4.536t-3.672-1.62q-1.26 0-2.25 0.504t-1.728 1.35 -1.152 1.962 -0.486 2.34l10.656 0zM88.19999999999999 25.235999999999997q1.044-0.288 2.718-0.648t4.338-0.36q3.528 0 5.112 2.052 0.18-0.144 0.702-0.486t1.314-0.702 1.854-0.612 2.358-0.252q2.124 0 3.438 0.63t2.034 1.764 0.972 2.718 0.252 3.456l0 10.404 -2.34 0 0-9.648q0-1.836-0.162-3.186t-0.648-2.232 -1.386-1.332 -2.34-0.45q-1.08 0-1.962 0.198t-1.53 0.486 -1.062 0.576 -0.594 0.432q0.324 0.936 0.486 2.106t0.162 2.466l0 10.584 -2.34 0 0-9.648q0-1.836-0.162-3.186t-0.666-2.232 -1.422-1.332 -2.43-0.45q-1.692 0-2.862 0.18t-1.494 0.324l0 16.344 -2.34 0 0-17.964zM118.15199999999999 33.876q0-2.448 0.702-4.266t1.836-3.042 2.592-1.818 3.006-0.594q3.42 0 5.454 2.232t2.034 6.876q0 0.288-0.018 0.576t-0.054 0.54l-13.068 0q0.108 3.42 1.692 5.256t5.04 1.836q1.908 0 3.024-0.36t1.62-0.612l0.432 2.016q-0.504 0.288-1.89 0.684t-3.258 0.396q-2.448 0-4.176-0.72t-2.844-2.016 -1.62-3.078 -0.504-3.906zM131.36399999999998 32.39999999999999q-0.072-2.916-1.368-4.536t-3.672-1.62q-1.26 0-2.25 0.504t-1.728 1.35 -1.152 1.962 -0.486 2.34l10.656 0zM138.99599999999998 25.235999999999997q1.044-0.288 2.808-0.648t4.32-0.36q2.124 0 3.546 0.612t2.268 1.746 1.206 2.718 0.36 3.492l0 10.404 -2.34 0 0-9.648q0-1.98-0.27-3.348t-0.9-2.232 -1.656-1.242 -2.574-0.378q-1.656 0-2.862 0.18t-1.566 0.324l0 16.344 -2.34 0 0-17.964zM161.676 24.587999999999997l7.416 0 0 1.98 -7.416 0 0 9.9q0 1.584 0.27 2.574t0.774 1.53 1.224 0.72 1.584 0.18q1.476 0 2.376-0.342t1.404-0.63l0.576 1.944q-0.504 0.324-1.764 0.738t-2.736 0.414q-1.728 0-2.898-0.45t-1.872-1.368 -0.99-2.286 -0.288-3.24l0-17.136 2.34-0.432 0 5.904zM179.85599999999997 18.035999999999994q5.292 0 7.884 2.016t2.592 5.724q0 2.124-0.756 3.618t-2.16 2.412 -3.438 1.332 -4.59 0.414l-3.384 0 0 9.648 -2.448 0 0-24.48q1.296-0.36 3.042-0.522t3.258-0.162zM179.96399999999997 20.159999999999997q-1.368 0-2.322 0.09t-1.638 0.162l0 11.016 3.096 0q1.98 0 3.582-0.234t2.736-0.864 1.746-1.746 0.612-2.844q0-1.656-0.666-2.736t-1.764-1.71 -2.502-0.882 -2.88-0.252zM200.59199999999998 41.507999999999996q1.368 0 2.394-0.09t1.746-0.234l0-6.552q-0.396-0.18-1.26-0.378t-2.376-0.198q-0.864 0-1.8 0.126t-1.728 0.54 -1.296 1.134 -0.504 1.908q0 1.044 0.342 1.764t0.972 1.152 1.512 0.63 1.998 0.198zM200.37599999999998 24.155999999999995q1.836 0 3.114 0.522t2.07 1.44 1.152 2.178 0.36 2.736l0 11.736q-0.36 0.108-1.044 0.234t-1.584 0.27 -1.998 0.234 -2.25 0.09q-1.476 0-2.718-0.324t-2.16-1.026 -1.44-1.8 -0.522-2.682q0-1.512 0.576-2.592t1.62-1.782 2.484-1.026 3.132-0.324q0.504 0 1.062 0.054t1.08 0.144 0.9 0.18 0.522 0.162l0-1.152q0-0.972-0.144-1.89t-0.63-1.656 -1.368-1.188 -2.322-0.45q-2.052 0-3.06 0.288t-1.476 0.468l-0.324-2.052q0.612-0.288 1.89-0.54t3.078-0.252zM217.764 43.523999999999994q-1.188-0.036-2.07-0.306t-1.476-0.828 -0.9-1.44 -0.306-2.214l0-23.04 2.34-0.432 0 23.4q0 0.864 0.162 1.386t0.486 0.828 0.846 0.45 1.242 0.252z"/>
  </g>
  <defs id="SvgjsDefs3408"/>
  <g xmlns:name="symbol_mainfill" id="SvgjsG3410" rel="mainfill" name="symbol" fill="#1967d2" transform="translate(0.18245583291618753,0.18245584678763324) scale(0.2327243004584334)">
    <g xmlns="http://www.w3.org/2000/svg">
      <circle cx="151.14" cy="29.46" r="22.5"/>
      <circle cx="85.407" cy="29.46" r="22.5"/>
      <path d="M234.194 2.336c-3.127-3.12-8.191-3.113-11.312 0.015l-44.281 44.392 -1.732 1.736c-0.107-0.018-0.215-0.036-0.322-0.053 -2.939-0.478-5.83-0.845-8.66-1.105 -4.385 4.113-10.274 6.639-16.746 6.639 -5.869 0-11.262-2.077-15.486-5.531 -15.807 2.509-27.084 7.207-31.439 9.229H68.831L13.663 2.351C10.544-0.778 5.478-0.784 2.351 2.336c-3.129 3.12-3.135 8.186-0.014 11.314l56.025 56.167v161.961c0 6.83 5.537 12.363 12.363 12.363 6.828 0 12.365-5.533 12.365-12.363v-90.271h4.635v90.271c0 6.83 5.537 12.363 12.363 12.363 6.828 0 12.365-5.533 12.365-12.363V108.461c4.686-4.511 8.52-9.32 11.639-13.969v137.286c0 6.83 5.537 12.363 12.365 12.363 6.826 0 12.363-5.533 12.363-12.363v-90.271h4.635v90.271c0 6.83 5.537 12.363 12.365 12.363 6.828 0 12.363-5.533 12.363-12.363V69.815l3.947-3.956c0.701 0.169 1.404 0.349 2.109 0.535 2.404 0.632 4.836 1.356 7.293 2.187 0.848 0.285 1.713 0.422 2.561 0.422 3.338 0 6.453-2.104 7.58-5.44 1.414-4.185-0.83-8.726-5.018-10.141 -0.535-0.181-1.066-0.349-1.6-0.521l1.582-1.587 37.57-37.664C237.329 10.521 237.323 5.456 234.194 2.336zM151.142 75.759c-1.926-0.002-3.842-0.655-5.408-1.958l-0.291-0.46 1.898-7.5h3.799 3.803l1.898 7.5 -0.291 0.46C154.985 75.103 153.071 75.757 151.142 75.759zM81.608 65.841h3.799 3.799l1.902 7.5 -0.287 0.453c-1.566 1.308-3.486 1.963-5.416 1.965 -1.928-0.002-3.842-0.654-5.406-1.957l-0.293-0.461L81.608 65.841zM85.407 130.341l-9.5-12 5.475-40.321c1.297 0.486 2.66 0.74 4.023 0.739h0.002c0 0 0.004 0 0.006 0 1.363 0 2.727-0.254 4.022-0.74l5.473 40.322L85.407 130.341zM112.454 83.04v-11.55c1.662-0.717 4.041-1.669 7.031-2.679C118.167 72.268 115.896 77.475 112.454 83.04zM151.14 130.341l-9.5-12 5.475-40.322c1.295 0.486 2.656 0.74 4.02 0.74 0.002 0 0.006 0 0.006 0h0.002c1.365 0.001 2.73-0.253 4.029-0.74l5.469 40.322L151.14 130.341z"/>
    </g>
  </g>
</svg>
